<svg xmlns="http://www.w3.org/2000/svg" width="196.803" height="48" viewBox="-58.402 68.441 196.803 48" enable-background="new -58.402 68.441 196.803 48"><path fill="#6BA300" d="M-47.859 75.261c.854-.503 1.746-.947 2.677-1.334 1.964-.813 3.986-1.319 6.07-1.516l2.257 2.57-1.03 2.644c-2.034.406-3.947 1.145-5.741 2.216l-.388.24-.381-3.482-3.464-1.338z"/><path fill="#6BA300" d="M-48.843 75.877l3.583 1.387.375 3.413c-1.94 1.428-3.452 3.25-4.534 5.465l-.274.594-2.501-3.055-4.108.867c1.024-2.205 2.399-4.179 4.126-5.921 1.028-1.038 2.14-1.955 3.333-2.75z"/><path fill="#6BA300" d="M-25.269 99.99c.384-.647.702-1.307.954-1.978l3.879 4.697 6.509-1.403c-.372 1.026-.814 2.031-1.323 3.015-1.339 2.58-3.103 4.819-5.295 6.719-2.226 1.928-4.74 3.334-7.545 4.219l-.167.052-4.824-4.079 1.265-5.554.095-.039c2.761-1.174 4.912-3.057 6.452-5.649z"/><path fill="#6BA300" d="M-17.121 78.041c.398.55.772 1.12 1.124 1.71 1.486 2.495 2.514 5.166 3.082 8.011.565 2.822.644 5.658.24 8.505-.194 1.369-.494 2.703-.902 4.004l-6.498 1.398-3.898-4.715c.466-1.731.507-3.538.122-5.416-.455-2.228-1.427-4.131-2.914-5.705l7.023-.832 2.621-6.96z"/><path fill="#6BA300" d="M-56.757 85.597l4.198-.885 2.473 3.019c-.757 2.167-.947 4.421-.57 6.761.106.664.253 1.312.438 1.94l-4.432-1.011-3.184 3.762c-.382-1.666-.571-3.369-.568-5.11.006-2.901.543-5.7 1.614-8.397l.031-.079z"/><path fill="#6BA300" d="M-49.869 97.472c.637 1.684 1.574 3.229 2.814 4.633.937 1.061 1.981 1.939 3.13 2.637l-4.401 2.518.239 5.733c-1.451-.908-2.784-1.987-4.001-3.235-2.041-2.093-3.606-4.498-4.692-7.214-.296-.742-.552-1.492-.767-2.251l3.247-3.833 4.431 1.012z"/><path fill="#6BA300" d="M-42.967 105.27c.947.47 1.959.83 3.037 1.078 2.414.56 4.768.465 7.061-.28l-1.253 5.515 4.778 4.039c-2.389.625-4.832.892-7.325.803-2.909-.094-5.701-.71-8.379-1.85-.717-.304-1.41-.643-2.08-1.015l-.238-5.771 4.399-2.519z"/><path fill="#6BA300" d="M-17.793 77.159l-2.628 6.974-7.226.854c-.211-.182-.429-.359-.657-.532-2.358-1.791-5.028-2.84-8.008-3.146-.674-.065-1.333-.084-1.976-.06l2.517-6.46-5.437-6.192c1.635-.141 3.267-.187 4.895-.138.981.025 1.953.1 2.919.225 1.359.177 2.703.453 4.031.829 2.809.79 5.37 2.074 7.684 3.849 1.46 1.121 2.755 2.386 3.886 3.797z"/><g fill="#222"><path d="M6.226 94.697h-5.148l-1.286 6.504h5.913l-.764 3.86h-10.228l4.488-23.443h9.808l-.765 3.826h-5.39l-1.149 5.566h5.252l-.731 3.687zM10.11 105.061l-.73-23.443h4.834l-.314 11.861c-.068 2.121-.208 4.835-.347 6.643h.07c.487-1.808 1.287-4.556 2.018-6.643l4.208-11.861h4.8l-9.808 23.443h-4.731zM32.566 94.697h-5.147l-1.288 6.504h5.914l-.766 3.86h-10.228l4.487-23.443h9.809l-.765 3.826h-5.391l-1.148 5.565h5.252l-.729 3.688zM33.521 105.061l4.488-23.443h3.964l1.809 9.322c.591 3.094.973 5.322 1.147 7.27h.07c.314-2.574.731-6.609 1.461-10.505l1.148-6.087h3.757l-4.487 23.443h-3.721l-1.879-8.729c-.731-3.27-.939-4.87-1.183-7.792h-.069c-.313 2.366-.834 6.226-1.601 10.296l-1.182 6.226-3.722-.001zM55.461 85.722h-4.07l.8-4.104h12.487l-.8 4.104h-4.07l-3.687 19.339h-4.349l3.689-19.339zM67.286 100.609c.765.453 1.982.8 3.235.8 1.982.069 3.373-1.148 3.373-2.992 0-1.565-.869-2.469-2.331-3.93-1.844-1.739-2.783-3.617-2.783-5.67 0-4.347 3.061-7.409 7.652-7.409 1.809 0 2.958.383 3.514.73l-1.183 3.757c-.696-.383-1.461-.626-2.54-.626-1.843 0-3.096 1.183-3.13 2.992 0 1.113.453 1.982 2.331 3.653 1.913 1.704 2.817 3.756 2.817 5.635 0 4.87-3.234 7.722-7.686 7.722-2.331 0-3.827-.522-4.382-.87l1.113-3.792zM84.155 85.722h-4.07l.8-4.104h12.486l-.799 4.104h-4.071l-3.686 19.339h-4.348l3.688-19.339zM106.244 88.783c0 4.975-1.634 11.235-4.73 14.33-1.461 1.461-3.13 2.226-5.184 2.226-5.077 0-5.808-5.078-5.808-7.651 0-4.766 1.636-11.027 4.87-14.192 1.392-1.356 3.096-2.156 5.148-2.156 5.078 0 5.704 4.661 5.704 7.443zm-7.86-2.887c-2.157 2.191-3.375 8.731-3.375 12.209 0 1.322.174 3.408 1.983 3.408.488 0 1.01-.244 1.426-.696 2.331-2.296 3.34-9.843 3.34-12.383 0-1.495-.209-3.269-1.81-3.269-.556.001-1.078.245-1.564.731zM110.027 81.931c1.461-.244 3.096-.418 4.662-.418 2.016 0 3.964.383 5.182 1.601.974.973 1.53 2.331 1.53 3.861 0 3.443-2.086 6.191-4.765 7.095v.07c1.288.591 1.843 1.948 1.912 4.557.07 2.609.14 5.495.383 6.364h-4.382c-.105-.661-.175-3.025-.175-5.6 0-2.852-.591-3.792-2.052-3.792h-.73l-1.739 9.391h-4.243l4.417-23.129zm2.261 10.365h1.009c2.19 0 3.651-2.331 3.651-4.801 0-1.251-.521-2.574-2.156-2.574-.451 0-.869.035-1.147.105l-1.357 7.27zM131.953 94.697h-5.148l-1.286 6.504h5.912l-.765 3.86h-10.225l4.487-23.443h9.808l-.765 3.826h-5.39l-1.148 5.565h5.252l-.732 3.688z"/></g><path fill="#222" d="M137.861 104.553c-.35.339-.771.508-1.261.508-.506 0-.933-.173-1.28-.52s-.521-.774-.521-1.28c0-.526.187-.963.562-1.312.352-.326.764-.489 1.238-.489.497 0 .922.176 1.274.528.352.352.528.777.528 1.274 0 .51-.18.941-.54 1.291zm-2.319-2.336c-.287.294-.43.642-.43 1.044 0 .417.146.771.437 1.063.29.292.64.437 1.05.437.409 0 .758-.146 1.048-.44.29-.295.435-.648.435-1.061 0-.401-.144-.748-.432-1.044-.291-.299-.642-.45-1.051-.45-.413.001-.765.151-1.057.451zm.269 2.045v-1.997l.556.002.412.004c.158.011.289.046.394.103.177.098.265.256.265.477 0 .168-.046.289-.14.363-.093.075-.209.12-.346.134.126.027.221.065.283.116.117.094.176.244.176.448v.179l.005.059.014.059.018.056h-.499l-.033-.276-.032-.245c-.026-.07-.075-.119-.147-.146l-.178-.032-.116-.007h-.11v.706l-.522-.003zm.953-1.602c-.072-.028-.172-.042-.303-.042h-.127v.579h.203c.122 0 .217-.024.286-.073.068-.049.103-.128.103-.238 0-.108-.054-.184-.162-.226z"/></svg>