<svg xmlns="http://www.w3.org/2000/svg" width="747.154" height="182.231"><path fill-rule="evenodd" clip-rule="evenodd" fill="#fff" d="M40.024 25.892c3.24-1.908 6.628-3.596 10.163-5.064 7.454-3.086 15.135-5.006 23.046-5.757l8.571 9.757-3.91 10.039c-7.72 1.543-14.985 4.348-21.797 8.414-.498.296-.988.601-1.474.912l-1.447-13.218-13.152-5.083z"/><path fill-rule="evenodd" clip-rule="evenodd" fill="#fff" d="M36.286 28.233l13.602 5.262 1.424 12.959c-7.363 5.422-13.106 12.338-17.215 20.749-.366.749-.713 1.5-1.041 2.254l-9.495-11.597-15.597 3.292c3.886-8.373 9.107-15.865 15.664-22.479 3.91-3.943 8.131-7.422 12.658-10.44z"/><path fill-rule="evenodd" clip-rule="evenodd" fill="#fff" d="M125.786 119.777c1.458-2.46 2.666-4.963 3.623-7.51l14.726 17.83 24.709-5.326c-1.412 3.898-3.089 7.712-5.025 11.445-5.083 9.794-11.782 18.296-20.103 25.51-8.45 7.318-17.995 12.66-28.644 16.017l-.636.198-18.313-15.486 4.8-21.086.359-.149c10.491-4.456 18.658-11.606 24.504-21.443z"/><path fill-rule="evenodd" clip-rule="evenodd" fill="#fff" d="M156.719 36.448c1.511 2.086 2.929 4.25 4.267 6.49 5.643 9.474 9.543 19.612 11.699 30.412 2.142 10.713 2.445 21.477.911 32.287-.735 5.198-1.876 10.262-3.424 15.201l-24.673 5.307-14.796-17.903c1.768-6.573 1.921-13.429.462-20.562-1.73-8.459-5.417-15.681-11.065-21.659l26.662-3.159 9.957-26.414z"/><path fill-rule="evenodd" clip-rule="evenodd" fill="#fff" d="M6.243 65.134l15.937-3.359 9.39 11.462c-2.874 8.227-3.594 16.784-2.163 25.669.404 2.524.96 4.98 1.663 7.363l-16.826-3.839-12.09 14.283c-1.45-6.326-2.168-12.794-2.154-19.399.022-11.012 2.062-21.641 6.126-31.88l.117-.3z"/><path fill-rule="evenodd" clip-rule="evenodd" fill="#fff" d="M32.391 110.216c2.417 6.395 5.978 12.258 10.682 17.588 3.556 4.025 7.519 7.361 11.883 10.01l-16.707 9.559.905 21.766c-5.509-3.448-10.57-7.543-15.19-12.283-7.749-7.949-13.688-17.076-17.813-27.385-1.124-2.818-2.096-5.666-2.91-8.545l12.329-14.552 16.821 3.842z"/><path fill-rule="evenodd" clip-rule="evenodd" fill="#fff" d="M58.596 139.822c3.594 1.787 7.439 3.151 11.529 4.092 9.167 2.125 18.103 1.767 26.805-1.064l-4.755 20.936 18.138 15.334c-9.073 2.373-18.346 3.389-27.811 3.048-11.045-.358-21.646-2.696-31.811-7.024-2.723-1.156-5.353-2.441-7.897-3.854l-.902-21.909 16.704-9.559z"/><path fill-rule="evenodd" clip-rule="evenodd" fill="#fff" d="M154.168 33.098l-9.979 26.475-27.434 3.245c-.802-.694-1.63-1.366-2.492-2.02-8.951-6.8-19.088-10.782-30.404-11.943-2.559-.246-5.059-.32-7.502-.227l9.558-24.526-20.641-23.506c6.207-.536 12.402-.71 18.586-.523 3.726.094 7.416.38 11.082.855 5.159.669 10.261 1.719 15.303 3.145 10.665 3.001 20.39 7.872 29.172 14.614 5.541 4.253 10.458 9.055 14.751 14.411z"/><g fill="#fff"><path d="M245.355 99.679h-19.543l-4.883 24.693h22.446l-2.902 14.655h-38.826l17.038-89.002h37.236l-2.905 14.525h-20.466l-4.359 21.129h19.94l-2.776 14zM260.1 139.028l-2.77-89.002h18.353l-1.19 45.031c-.26 8.054-.792 18.354-1.318 25.221h.264c1.848-6.867 4.886-17.297 7.663-25.221l15.975-45.031h18.225l-37.238 89.002h-17.964zM345.351 99.679h-19.541l-4.889 24.693h22.45l-2.907 14.655h-38.824l17.037-89.002h37.237l-2.905 14.525h-20.466l-4.361 21.129h19.941l-2.772 14zM348.979 139.028l17.038-89.002h15.051l6.868 35.391c2.244 11.749 3.694 20.204 4.354 27.601h.265c1.191-9.773 2.775-25.09 5.546-39.88l4.359-23.111h14.263l-17.035 89.002h-14.128l-7.133-33.142c-2.774-12.415-3.566-18.488-4.489-29.582h-.264c-1.188 8.979-3.168 23.638-6.078 39.086l-4.489 23.638h-14.128zM432.273 65.608h-15.451l3.039-15.583h47.407l-3.038 15.583h-15.452l-13.997 73.42h-16.509l14.001-73.42zM477.167 122.126c2.905 1.718 7.525 3.037 12.28 3.037 7.528.263 12.808-4.357 12.808-11.357 0-5.941-3.3-9.375-8.847-14.92-6.999-6.604-10.564-13.732-10.564-21.524 0-16.506 11.622-28.129 29.049-28.129 6.868 0 11.229 1.453 13.342 2.773l-4.492 14.262c-2.641-1.452-5.546-2.378-9.639-2.378-6.999 0-11.754 4.491-11.884 11.359 0 4.224 1.717 7.526 8.848 13.865 7.263 6.47 10.693 14.261 10.693 21.393 0 18.487-12.28 29.315-29.181 29.315-8.847 0-14.527-1.981-16.638-3.302l4.225-14.394zM541.209 65.608h-15.451l3.04-15.583h47.403l-3.035 15.583h-15.453l-13.995 73.42h-16.51l14.001-73.42zM625.07 77.228c0 18.885-6.204 42.654-17.958 54.405-5.545 5.548-11.883 8.452-19.68 8.452-19.276 0-22.05-19.279-22.05-29.05 0-18.091 6.209-41.862 18.489-53.879 5.284-5.149 11.754-8.186 19.546-8.186 19.276 0 21.653 17.696 21.653 28.258zm-29.841-10.959c-8.189 8.318-12.812 33.147-12.812 46.351 0 5.018.66 12.94 7.528 12.94 1.853 0 3.834-.924 5.412-2.642 8.85-8.715 12.679-37.37 12.679-47.012 0-5.675-.792-12.412-6.868-12.412-2.11.001-4.091.927-5.939 2.775zM639.433 51.215c5.545-.926 11.752-1.587 17.697-1.587 7.656 0 15.051 1.456 19.674 6.076 3.697 3.697 5.81 8.847 5.81 14.659 0 13.072-7.92 23.506-18.09 26.938v.266c4.887 2.244 6.997 7.396 7.262 17.299.266 9.904.529 20.863 1.453 24.163h-16.638c-.396-2.508-.661-11.486-.661-21.259 0-10.828-2.246-14.395-7.791-14.395h-2.773l-6.602 35.653h-16.111l16.77-87.813zm8.585 39.351h3.831c8.314 0 13.861-8.849 13.861-18.224 0-4.752-1.979-9.773-8.188-9.773-1.714 0-3.298.134-4.355.397l-5.149 27.6zM722.676 99.679h-19.543l-4.884 24.693h22.445l-2.905 14.655h-38.822l17.037-89.002h37.234l-2.905 14.525h-20.464l-4.36 21.129h19.94l-2.773 14z"/></g><path fill="#fff" d="M745.104 137.098c-1.329 1.286-2.925 1.93-4.787 1.93-1.923 0-3.543-.659-4.861-1.976-1.316-1.318-1.976-2.938-1.976-4.861 0-1.998.711-3.658 2.134-4.982 1.336-1.236 2.904-1.855 4.703-1.855 1.887 0 3.498.668 4.834 2.004s2.004 2.947 2.004 4.834c-.001 1.94-.684 3.577-2.051 4.906zm-8.804-8.869c-1.089 1.113-1.633 2.435-1.633 3.962 0 1.583.554 2.928 1.661 4.035 1.101 1.107 2.43 1.66 3.988 1.66 1.553 0 2.88-.557 3.98-1.67 1.101-1.119 1.651-2.461 1.651-4.025 0-1.521-.548-2.842-1.642-3.962-1.107-1.138-2.438-1.707-3.99-1.707-1.569 0-2.908.569-4.015 1.707zm1.02 7.765v-7.579l2.11.005c.938.003 1.458.008 1.563.014.6.043 1.098.174 1.494.39.674.371 1.011.974 1.011 1.81 0 .637-.178 1.097-.533 1.38-.356.283-.794.452-1.313.508.477.099.836.245 1.076.438.445.359.668.927.668 1.699v.678l.016.223.055.223.069.213h-1.893c-.062-.24-.104-.59-.125-1.048-.022-.458-.063-.767-.126-.928-.099-.266-.284-.451-.557-.557-.148-.062-.374-.103-.677-.12l-.437-.028h-.417v2.681h-1.984zm3.618-6.086c-.272-.104-.655-.157-1.15-.157h-.482v2.198h.771c.463 0 .825-.092 1.085-.277s.39-.486.39-.9-.205-.702-.614-.864z"/></svg>