<svg xmlns="http://www.w3.org/2000/svg" width="258.15" height="238.23"><linearGradient id="a" gradientUnits="userSpaceOnUse" x1="-41.95" y1="-24.834" x2="-41.95" y2="154.92" gradientTransform="matrix(.866 -.5 -.5 -.866 204.587 163.003)"><stop offset="0" stop-color="#6BA300"/><stop offset="1" stop-color="#8DD900"/></linearGradient><path fill="url(#a)" d="M51.704 72.101c-7.171 4.141-9.631 13.32-5.49 20.49l75 129.903c4.141 7.172 13.319 9.631 20.49 5.489l77.941-45c7.172-4.14 9.631-13.317 5.489-20.489l-75-129.903c-4.14-7.17-13.317-9.63-20.489-5.49l-77.941 45z"/><path fill="#6BA300" d="M145.454 234.481l.149.261c2.139 3.384 6.597 4.505 10.095 2.483l.26-.148 12.731-7.352.259-.148c3.299-2.09 4.457-6.384 2.637-9.835l-.149-.261-3.75-6.496-6.495 3.75-12.991 7.5-6.494 3.75 3.748 6.496z"/><path fill="#6BA300" d="M197.415 204.481l.15.261c2.139 3.384 6.596 4.505 10.096 2.483l.259-.148 12.731-7.352.26-.148c3.297-2.09 4.455-6.383 2.635-9.835l-.149-.261-3.75-6.496-6.494 3.75-12.99 7.5-6.496 3.75 3.748 6.496z"/><path fill="#CED900" d="M76.324 23.245c6.278-3.625 27.991 18.48 27.991 18.48l-25.981 15c-.001.001-8.618-29.665-2.01-33.48z"/><path fill="#CED900" d="M57.843 51.235c3.145-1.814 13.995 9.241 13.995 9.241l-12.989 7.5c-.001 0-4.306-14.836-1.006-16.741z"/><path fill="#CED900" d="M109.805 21.235c3.143-1.814 13.993 9.241 13.993 9.241l-12.989 7.5s-4.305-14.835-1.004-16.741z"/><path fill="#6BA300" d="M179.899 84.124s-22.356-38.685-22.354-38.721c-.051-20.327 4.914-37.408 15.905-43.592 20.017-11.269 52.433 33.397 48.91 41.736-2.314 5.47-17.01-9.822-19.826-5.181-3.434 5.653 12.799 20.889 9.773 27.047-2.933 5.964-18.934-9.069-21.742-3.797-2.424 4.562 11.692 22.716 8.236 29.088-2.765 5.108-18.902-6.58-18.902-6.58z"/><path fill="#6BA300" d="M75.959 144.133s-22.322-38.704-22.354-38.72c-17.58-10.208-34.855-14.449-45.706-8.022-19.768 11.701 2.707 62.107 11.689 63.227 5.896.73-.001-19.643 5.427-19.762 6.612-.146 11.698 21.524 18.537 21.987 6.63.444 1.61-20.93 7.581-20.728 5.163.183 13.825 21.484 21.073 21.678 5.807.159 3.753-19.66 3.753-19.66z"/><path fill="#6BA300" d="M202.26 122.875c36.884 9.882 38.519-24.408 50.035-28.46 11.518-4.051 7.869 46.991-27.535 67.432-.008.003-22.5-38.972-22.5-38.972z"/><linearGradient id="b" gradientUnits="userSpaceOnUse" x1="-41.951" y1="-24.835" x2="-41.951" y2="50.166" gradientTransform="matrix(.866 -.5 -.5 -.866 204.587 163.003)"><stop offset="0" stop-color="#8CD700" stop-opacity="0"/><stop offset="1" stop-color="#8CD700"/></linearGradient><path fill="url(#b)" d="M133.909 214.485l4.079 7.065c2.056 3.561 6.625 4.755 10.21 2.685l64.953-37.5c3.584-2.068 4.835-6.624 2.779-10.185l-4.08-7.065c-14.354-24.863-47.155-41.376-68.677-28.95-21.52 12.424-23.62 49.086-9.264 73.95z"/><path opacity=".25" fill="#fff" enable-background="new" d="M133.909 214.485l.295.511 77.941-45-.295-.511c-2.399-4.156-5.312-8.077-8.607-11.67l-75.137 43.38c1.463 4.652 3.402 9.133 5.803 13.29z"/><path opacity=".35" fill="#fff" enable-background="new" d="M191.334 147.37c-5-3.5-10.354-6.296-15.788-8.205l-49.745 28.72c-1.062 5.659-1.317 11.696-.786 17.774l66.319-38.289z"/><path fill="#fff" d="M109.246 150.007c-3.306 1.054-10.923-12.157-10.923-12.157l13.676-4.374s.714 15.418-2.753 16.531z"/><path fill="#fff" d="M168.153 115.997c2.566-2.336-5.068-15.538-5.068-15.538l-10.625 9.656c-.001.001 12.995 8.329 15.693 5.882z"/><path stroke="#000" stroke-width="3" stroke-linecap="round" stroke-linejoin="round" stroke-miterlimit="10" d="M89.204 137.053c23.42 1.766 68.596-24.789 77.941-45" fill="none"/><path d="M128.321 105.808c-1.654-2.867-1.839-5.866-.401-6.696 1.438-.829 3.943.83 5.6 3.696 1.653 2.867 1.84 5.866.4 6.696-1.438.83-3.944-.83-5.599-3.696zM116.63 112.558c-1.654-2.867-1.84-5.866-.401-6.696 1.438-.829 3.942.83 5.599 3.696 1.654 2.867 1.84 5.866.401 6.696-1.438.83-3.943-.83-5.599-3.696z"/><path fill="#fff" d="M120.694 86.597c-5.649-9.786-9.053-23.121-1.882-27.261 7.171-4.141 22.214 2.475 27.862 12.261 5.646 9.777 4.405 21.07-2.765 25.21-7.17 4.141-17.57-.432-23.215-10.21z"/><path fill="#fff" d="M107.704 94.097c-5.648-9.786-15.496-19.399-22.666-15.261-7.172 4.14-8.965 20.475-3.313 30.261 5.645 9.777 16.045 14.352 23.216 10.21 7.17-4.141 8.408-15.432 2.763-25.21z"/><path d="M123.667 84.246c-3.104-5.378-1.26-12.264 4.119-15.368 5.377-3.105 12.262-1.26 15.367 4.118 3.104 5.378 1.26 12.263-4.117 15.368-5.379 3.105-12.264 1.26-15.369-4.118zM84.696 106.746c-3.104-5.378-1.26-12.264 4.118-15.368 5.378-3.105 12.263-1.26 15.368 4.118 3.104 5.378 1.26 12.263-4.118 15.368-5.378 3.105-12.263 1.26-15.368-4.118z"/><path fill="#fff" d="M95.676 96.504c-1.976-.522-3.279-2.102-2.899-3.522.377-1.406 2.297-2.123 4.271-1.601 1.973.535 3.276 2.115 2.899 3.521-.38 1.422-2.299 2.138-4.271 1.602z"/><path fill="#fff" d="M134.647 74.004c-1.976-.522-3.28-2.102-2.899-3.522.377-1.406 2.297-2.123 4.272-1.601 1.971.536 3.275 2.115 2.898 3.521-.379 1.422-2.299 2.138-4.271 1.602z"/><path opacity=".1" enable-background="new" d="M145.454 234.481l.149.261c2.139 3.384 6.597 4.505 10.095 2.483l.26-.148 12.731-7.352.259-.148c3.299-2.09 4.457-6.384 2.637-9.835l-.149-.261-3.75-6.496-6.495 3.75-12.991 7.5-6.494 3.75 3.748 6.496z"/><path opacity=".1" enable-background="new" d="M197.415 204.481l.15.261c2.139 3.384 6.596 4.505 10.096 2.483l.259-.148 12.731-7.352.26-.148c3.297-2.09 4.455-6.383 2.635-9.835l-.149-.261-3.75-6.496-6.494 3.75-12.99 7.5-6.496 3.75 3.748 6.496z"/><linearGradient id="c" gradientUnits="userSpaceOnUse" x1="-43.149" y1="170.17" x2="-26.198" y2="170.17" gradientTransform="matrix(.866 -.5 -.5 -.866 204.587 163.003)"><stop offset="0" stop-opacity="0"/><stop offset="1"/></linearGradient><path opacity=".15" fill="url(#c)" enable-background="new" d="M76.324 23.245c-.562.324-1.024.846-1.374 1.521 7.442.669 22.869 20.71 22.869 20.71l6.496-3.75s-21.713-22.106-27.991-18.481z"/><linearGradient id="d" gradientUnits="userSpaceOnUse" x1="-12.379" y1="162.67" x2="-3.699" y2="162.67" gradientTransform="matrix(.866 -.5 -.5 -.866 204.587 163.003)"><stop offset="0" stop-opacity="0"/><stop offset="1"/></linearGradient><path opacity=".15" fill="url(#d)" enable-background="new" d="M109.805 21.235c-.349.2-.604.534-.799.98 3.75.733 10.896 10.51 10.896 10.51l3.896-2.25c.001.001-10.85-11.055-13.993-9.24z"/><linearGradient id="e" gradientUnits="userSpaceOnUse" x1="-72.38" y1="162.671" x2="-63.7" y2="162.671" gradientTransform="matrix(.866 -.5 -.5 -.866 204.587 163.003)"><stop offset="0" stop-opacity="0"/><stop offset="1"/></linearGradient><path opacity=".15" fill="url(#e)" enable-background="new" d="M57.843 51.235c-.347.2-.604.534-.797.98 3.749.733 10.896 10.511 10.896 10.511l3.896-2.25s-10.851-11.056-13.995-9.241z"/><linearGradient id="f" gradientUnits="userSpaceOnUse" x1="48.051" y1="65.626" x2="48.051" y2="127.427" gradientTransform="matrix(.866 -.5 -.5 -.866 204.587 163.003)"><stop offset="0"/><stop offset="1" stop-opacity="0"/></linearGradient><path opacity=".15" fill="url(#f)" enable-background="new" d="M179.899 84.124s16.137 11.688 18.903 6.581c3.455-6.373-10.661-24.526-8.237-29.088 2.81-5.271 18.811 9.762 21.742 3.797 3.024-6.158-13.207-21.394-9.773-27.047 2.816-4.642 17.512 10.65 19.826 5.181 1.788-4.243-5.719-17.887-16.167-28.783 7.689 9.521 6.73 16.84 5.245 20.366-2.314 5.47-11.137-7.15-13.953-2.509-3.435 5.653 6.926 18.217 3.9 24.375-2.933 5.965-13.061-6.397-15.87-1.125-2.424 4.562 5.821 20.044 2.364 26.417-2.036 3.751-5.427 1.101-10.193-1.979l2.213 3.814z"/><linearGradient id="g" gradientUnits="userSpaceOnUse" x1="-131.947" y1="64.875" x2="-131.953" y2="128.195" gradientTransform="matrix(.866 -.5 -.5 -.866 204.587 163.003)"><stop offset="0"/><stop offset="1" stop-opacity="0"/></linearGradient><path opacity=".15" fill="url(#g)" enable-background="new" d="M75.967 144.128s2.056 19.816-3.76 19.665c-7.239-.197-15.9-21.5-21.073-21.678-5.962-.207-.941 21.167-7.572 20.723-6.848-.458-11.934-22.128-18.546-21.982-5.419.115.478 20.486-5.418 19.756-4.577-.566-12.64-13.892-16.852-28.388 4.407 11.416 11.228 14.245 15.022 14.721 5.896.73-.624-13.22 4.796-13.333 6.611-.146 12.32 15.103 19.168 15.561 6.631.444.988-14.508 6.95-14.301 5.173.178 14.457 15.06 21.694 15.257 4.276.104 3.676-4.154 3.386-9.818l2.205 3.817z"/><linearGradient id="h" gradientUnits="userSpaceOnUse" x1="48.209" y1="-9.458" x2="48.209" y2="35.443" gradientTransform="matrix(.866 -.5 -.5 -.866 204.587 163.003)"><stop offset="0"/><stop offset="1" stop-opacity="0"/></linearGradient><path opacity=".15" fill="url(#h)" enable-background="new" d="M217.201 148.75l7.561 13.096c35.403-20.439 39.052-71.483 27.534-67.432-.308.108-.617.253-.922.403 7.995 13.85-13.936 44.986-34.173 53.933z"/></svg>