<?xml version="1.0" encoding="utf-8"?>
<!-- Generator: Adobe Illustrator 16.2.1, SVG Export Plug-In . SVG Version: 6.00 Build 0)  -->
<!DOCTYPE svg PUBLIC "-//W3C//DTD SVG 1.1//EN" "http://www.w3.org/Graphics/SVG/1.1/DTD/svg11.dtd">
<svg version="1.1" id="Layer_1" xmlns="http://www.w3.org/2000/svg" xmlns:xlink="http://www.w3.org/1999/xlink" x="0px" y="0px"
	 width="3401.57px" height="3401.57px" viewBox="0 0 3401.57 3401.57" enable-background="new 0 0 3401.57 3401.57"
	 xml:space="preserve">
<g>
	<path fill="#C3C3C2" d="M767.498,340.901c56.425-47.702,117.875-92.313,184.294-133.886
		c66.364-41.574,137.751-78.124,214.108-109.704c76.301-31.525,158.345-56.15,246.131-73.872
		c87.785-17.668,182.803-26.557,285.109-26.557c143.44,0,272.798,19.103,388.077,57.199
		c115.227,38.095,213.282,92.588,294.221,163.479c80.885,70.891,143.107,156.302,186.614,256.123
		c43.506,99.877,65.259,210.795,65.259,332.702c0,117.433-16.066,218.083-48.09,301.893
		c-32.077,83.865-72.933,157.02-122.512,219.519c-49.58,62.499-103.797,116.274-162.542,161.216
		c-58.8,44.997-114.507,87.289-167.18,126.93c-52.67,39.642-98.44,78.51-137.364,116.606
		c-38.924,38.095-62.94,80.772-72.106,128.034l-64.1,320.168h-485.415l-50.408-368.146c-1.546-9.11-2.65-18.22-3.423-27.385
		c-0.772-9.166-1.159-18.331-1.159-27.496c0-67.025,16.011-125.715,48.089-176.067c32.022-50.297,72.492-96.398,121.354-138.358
		c48.806-41.905,101.477-82.319,157.958-121.188c56.48-38.869,109.152-80.774,158.014-125.716
		c48.807-44.941,89.275-95.294,121.354-150.946c32.022-55.654,48.09-121.576,48.09-197.821c0-91.43-30.146-164.197-90.436-218.304
		c-60.292-54.107-143.108-81.216-248.451-81.216c-80.939,0-148.462,8.393-202.625,25.177
		c-54.216,16.784-100.76,35.445-139.683,56.039c-38.924,20.593-72.878,39.255-101.865,56.039
		c-29.041,16.784-58.026,25.122-87.012,25.122c-65.646,0-114.508-27.938-146.53-83.866L767.498,340.901z M1188.812,3007.426
		c0-55.046,10.27-106.281,30.919-153.652c20.593-47.371,48.806-88.668,84.693-123.838s78.234-63.106,127.095-83.756
		c48.807-20.648,102.25-30.973,160.278-30.973c56.425,0,109.097,10.324,157.957,30.973c48.862,20.649,91.597,48.586,128.256,83.756
		c36.604,35.17,65.204,76.467,85.854,123.838c20.592,47.371,30.918,98.606,30.918,153.652c0,55.101-10.326,106.723-30.918,154.867
		c-20.65,48.144-49.25,89.827-85.854,124.997c-36.659,35.169-79.394,62.664-128.256,82.54
		c-48.86,19.876-101.532,29.814-157.957,29.814c-58.027,0-111.471-9.938-160.278-29.814c-48.861-19.876-91.208-47.371-127.095-82.54
		c-35.887-35.17-64.1-76.854-84.693-124.997C1199.082,3114.148,1188.812,3062.526,1188.812,3007.426z"/>
</g>
</svg>
