<svg xmlns="http://www.w3.org/2000/svg" viewBox="0 52.441 427.378 104.882" enable-background="new 0 52.441 427.378 104.882"><path fill="#6BA300" d="M22.894 67.573c1.854-1.092 3.792-2.057 5.813-2.896 4.264-1.766 8.657-2.864 13.182-3.293l4.902 5.581-2.236 5.742c-4.416.882-8.572 2.486-12.468 4.812-.284.169-.565.343-.843.521l-.828-7.561-7.522-2.906z"/><path fill="#6BA300" d="M20.756 68.912l7.78 3.011.814 7.412c-4.212 3.102-7.497 7.058-9.847 11.868-.209.429-.408.858-.595 1.29l-5.431-6.634-8.922 1.883c2.223-4.789 5.209-9.075 8.959-12.858 2.238-2.255 4.653-4.245 7.242-5.972z"/><path fill="#6BA300" d="M71.951 121.276c.834-1.406 1.524-2.839 2.072-4.295l8.423 10.199 14.134-3.047c-.807 2.229-1.767 4.411-2.874 6.547-2.907 5.602-6.739 10.465-11.499 14.592-4.833 4.186-10.294 7.241-16.385 9.161l-.363.114-10.476-8.858 2.746-12.062.206-.085c6-2.549 10.671-6.638 14.016-12.266z"/><path fill="#6BA300" d="M89.644 73.612c.865 1.194 1.676 2.432 2.441 3.713 3.228 5.419 5.459 11.219 6.692 17.396 1.226 6.128 1.398 12.286.521 18.469-.421 2.974-1.073 5.87-1.959 8.695l-14.112 3.035-8.464-10.24c1.012-3.76 1.1-7.683.264-11.762-.989-4.839-3.098-8.97-6.329-12.39l15.251-1.806 5.695-15.11z"/><path fill="#6BA300" d="M3.571 90.02l9.116-1.921 5.371 6.557c-1.644 4.705-2.056 9.6-1.237 14.683.231 1.443.549 2.849.951 4.212l-9.625-2.195-6.915 8.169c-.83-3.618-1.241-7.317-1.233-11.096.013-6.299 1.18-12.379 3.504-18.235l.068-.174z"/><path fill="#6BA300" d="M18.528 115.807c1.383 3.658 3.419 7.012 6.11 10.061 2.034 2.303 4.301 4.211 6.797 5.727l-9.557 5.468.518 12.449c-3.151-1.972-6.046-4.314-8.689-7.025-4.432-4.546-7.83-9.767-10.189-15.665-.643-1.611-1.199-3.24-1.665-4.888l7.052-8.323 9.623 2.196z"/><path fill="#6BA300" d="M33.517 132.742c2.056 1.021 4.255 1.803 6.595 2.341 5.243 1.216 10.354 1.01 15.333-.609l-2.72 11.976 10.375 8.771c-5.189 1.357-10.494 1.938-15.908 1.743-6.317-.205-12.381-1.542-18.196-4.018-1.557-.661-3.062-1.396-4.517-2.204l-.516-12.532 9.554-5.468z"/><path fill="#6BA300" d="M88.185 71.696l-5.707 15.144-15.693 1.855c-.458-.396-.932-.78-1.426-1.155-5.12-3.89-10.918-6.168-17.391-6.832-1.464-.141-2.894-.183-4.291-.13l5.467-14.028-11.807-13.446c3.55-.307 7.094-.405 10.631-.299 2.131.054 4.242.217 6.339.488 2.951.384 5.87.984 8.754 1.8 6.101 1.716 11.662 4.503 16.687 8.358 3.169 2.434 5.981 5.181 8.437 8.245z"/><g fill="#222"><path d="M140.345 109.781h-11.179l-2.793 14.124h12.84l-1.66 8.383h-22.209l9.746-50.909h21.299l-1.662 8.309h-11.706l-2.493 12.086h11.405l-1.588 8.007zM148.779 132.287l-1.585-50.908h10.498l-.681 25.758c-.148 4.607-.452 10.499-.754 14.426h.151c1.057-3.927 2.795-9.894 4.383-14.426l9.139-25.758h10.424l-21.3 50.908h-10.275zM197.544 109.781h-11.178l-2.797 14.124h12.842l-1.664 8.383h-22.207l9.744-50.909h21.301l-1.662 8.309h-11.707l-2.494 12.086h11.406l-1.584 8.007zM199.618 132.287l9.746-50.908h8.609l3.928 20.244c1.283 6.72 2.113 11.557 2.491 15.787h.151c.682-5.59 1.588-14.352 3.172-22.812l2.493-13.219h8.159l-9.744 50.909h-8.08l-4.081-18.957c-1.587-7.102-2.04-10.576-2.568-16.922h-.15c-.68 5.137-1.812 13.521-3.477 22.358l-2.567 13.521h-8.082v-.001zM247.263 90.291h-8.838l1.738-8.913h27.117l-1.737 8.913h-8.839l-8.006 41.996h-9.444l8.009-41.996zM272.942 122.62c1.662.983 4.305 1.737 7.025 1.737 4.305.15 7.325-2.492 7.325-6.497 0-3.398-1.888-5.362-5.061-8.534-4.004-3.777-6.043-7.854-6.043-12.312 0-9.441 6.648-16.09 16.617-16.09 3.928 0 6.423.832 7.632 1.586l-2.569 8.158c-1.511-.831-3.173-1.36-5.515-1.36-4.003 0-6.724 2.568-6.798 6.498 0 2.416.983 4.305 5.062 7.932 4.154 3.7 6.117 8.157 6.117 12.236 0 10.575-7.024 16.769-16.691 16.769-5.061 0-8.31-1.133-9.517-1.889l2.416-8.234zM309.575 90.291h-8.838l1.738-8.913h27.114l-1.735 8.913h-8.84l-8.005 41.996h-9.442l8.008-41.996zM357.544 96.938c0 10.803-3.548 24.398-10.271 31.12-3.172 3.173-6.798 4.835-11.258 4.835-11.026 0-12.613-11.027-12.613-16.616 0-10.349 3.552-23.946 10.576-30.819 3.022-2.945 6.724-4.682 11.18-4.682 11.027-.001 12.386 10.121 12.386 16.162zm-17.069-6.269c-4.685 4.759-7.329 18.961-7.329 26.514 0 2.87.378 7.401 4.307 7.401 1.06 0 2.194-.529 3.096-1.511 5.062-4.985 7.253-21.376 7.253-26.892 0-3.246-.454-7.1-3.93-7.1-1.207.002-2.34.532-3.397 1.588zM365.759 82.059c3.173-.529 6.724-.907 10.123-.907 4.379 0 8.609.832 11.254 3.476 2.115 2.113 3.323 5.061 3.323 8.385 0 7.477-4.529 13.445-10.347 15.408v.152c2.796 1.283 4.003 4.23 4.152 9.896.153 5.665.303 11.934.832 13.821h-9.516c-.228-1.436-.38-6.57-.38-12.16 0-6.194-1.284-8.234-4.456-8.234h-1.586l-3.777 20.393h-9.215l9.593-50.23zm4.911 22.509h2.192c4.755 0 7.928-5.062 7.928-10.425 0-2.717-1.131-5.589-4.683-5.589-.98 0-1.887.076-2.491.227l-2.946 15.787zM413.375 109.781h-11.179l-2.793 14.124h12.838l-1.662 8.383h-22.205l9.745-50.909h21.298l-1.662 8.309h-11.705l-2.494 12.086h11.406l-1.587 8.007z"/></g><path fill="#222" d="M426.204 131.184c-.76.736-1.674 1.104-2.738 1.104-1.099 0-2.026-.376-2.779-1.13s-1.131-1.68-1.131-2.78c0-1.143.407-2.092 1.221-2.85.764-.707 1.66-1.061 2.689-1.061 1.08 0 2.002.382 2.766 1.146.764.765 1.146 1.687 1.146 2.766-.001 1.109-.392 2.045-1.174 2.805zm-5.035-5.073c-.623.638-.934 1.394-.934 2.267 0 .905.316 1.675.949 2.308.63.635 1.389.95 2.281.95.888 0 1.646-.318 2.276-.955.63-.641.944-1.408.944-2.303 0-.87-.313-1.625-.939-2.267-.633-.65-1.395-.977-2.282-.977-.897 0-1.662.326-2.295.977zm.583 4.442v-4.336l1.207.004.894.008c.344.023.628.099.855.223.385.213.576.557.576 1.035 0 .364-.1.628-.304.789-.202.162-.454.26-.751.29.273.058.479.141.615.251.255.205.383.53.383.972v.388l.01.128.031.128.039.121h-1.084c-.035-.137-.059-.337-.072-.599-.012-.262-.034-.439-.07-.531-.057-.152-.163-.258-.319-.318-.085-.036-.214-.06-.387-.069l-.251-.016h-.238v1.533h-1.134v-.001zm2.069-3.48c-.156-.061-.374-.091-.658-.091h-.275v1.258h.441c.266 0 .472-.053.621-.158.148-.106.223-.278.223-.516 0-.237-.117-.402-.352-.493z"/></svg>