<?xml version="1.0" encoding="utf-8"?>
<!-- Generator: Adobe Illustrator 16.2.1, SVG Export Plug-In . SVG Version: 6.00 Build 0)  -->
<!DOCTYPE svg PUBLIC "-//W3C//DTD SVG 1.1//EN" "http://www.w3.org/Graphics/SVG/1.1/DTD/svg11.dtd">
<svg version="1.1" id="Layer_1" xmlns="http://www.w3.org/2000/svg" xmlns:xlink="http://www.w3.org/1999/xlink" x="0px" y="0px"
	 width="100%" height="100%" viewBox="0 52.441 427.378 104.882" enable-background="new 0 52.441 427.378 104.882"
	 xml:space="preserve">
<g>
	<path fill="#6BA300" d="M22.894,67.573c1.854-1.092,3.792-2.057,5.813-2.896c4.264-1.766,8.657-2.864,13.182-3.293l4.902,5.581
		l-2.236,5.742c-4.416,0.882-8.572,2.486-12.468,4.812c-0.284,0.169-0.565,0.343-0.843,0.521l-0.828-7.561L22.894,67.573z"/>
	<path fill="#6BA300" d="M20.756,68.912l7.78,3.011l0.814,7.412c-4.212,3.102-7.497,7.058-9.847,11.868
		c-0.209,0.429-0.408,0.858-0.595,1.29l-5.431-6.634l-8.922,1.883c2.223-4.789,5.209-9.075,8.959-12.858
		C15.752,72.629,18.167,70.639,20.756,68.912z"/>
	<path fill="#6BA300" d="M71.951,121.276c0.834-1.406,1.524-2.839,2.072-4.295l8.423,10.199l14.134-3.047
		c-0.807,2.229-1.767,4.411-2.874,6.547c-2.907,5.602-6.739,10.465-11.499,14.592c-4.833,4.186-10.294,7.241-16.385,9.161
		c-0.121,0.038-0.242,0.075-0.363,0.114l-10.476-8.858l2.746-12.062c0.068-0.028,0.137-0.057,0.206-0.085
		C63.935,130.993,68.606,126.904,71.951,121.276z"/>
	<path fill="#6BA300" d="M89.644,73.612c0.865,1.194,1.676,2.432,2.441,3.713c3.228,5.419,5.459,11.219,6.692,17.396
		c1.226,6.128,1.398,12.286,0.521,18.469c-0.421,2.974-1.073,5.87-1.959,8.695l-14.112,3.035l-8.464-10.24
		c1.012-3.76,1.1-7.683,0.264-11.762c-0.989-4.839-3.098-8.97-6.329-12.39l15.251-1.806L89.644,73.612z"/>
	<path fill="#6BA300" d="M3.571,90.02l9.116-1.921l5.371,6.557c-1.644,4.705-2.056,9.6-1.237,14.683
		c0.231,1.443,0.549,2.849,0.951,4.212l-9.625-2.195l-6.915,8.169c-0.83-3.618-1.241-7.317-1.233-11.096
		c0.013-6.299,1.18-12.379,3.504-18.235C3.526,90.135,3.548,90.076,3.571,90.02z"/>
	<path fill="#6BA300" d="M18.528,115.807c1.383,3.658,3.419,7.012,6.11,10.061c2.034,2.303,4.301,4.211,6.797,5.727l-9.557,5.468
		l0.518,12.449c-3.151-1.972-6.046-4.314-8.689-7.025c-4.432-4.546-7.83-9.767-10.189-15.665c-0.643-1.611-1.199-3.24-1.665-4.888
		l7.052-8.323L18.528,115.807z"/>
	<path fill="#6BA300" d="M33.517,132.742c2.056,1.021,4.255,1.803,6.595,2.341c5.243,1.216,10.354,1.01,15.333-0.609l-2.72,11.976
		l10.375,8.771c-5.189,1.357-10.494,1.938-15.908,1.743c-6.317-0.205-12.381-1.542-18.196-4.018
		c-1.557-0.661-3.062-1.396-4.517-2.204l-0.516-12.532L33.517,132.742z"/>
	<path fill="#6BA300" d="M88.185,71.696L82.478,86.84l-15.693,1.855c-0.458-0.396-0.932-0.78-1.426-1.155
		c-5.12-3.89-10.918-6.168-17.391-6.832c-1.464-0.141-2.894-0.183-4.291-0.13l5.467-14.028L37.337,53.104
		c3.55-0.307,7.094-0.405,10.631-0.299c2.131,0.054,4.242,0.217,6.339,0.488c2.951,0.384,5.87,0.984,8.754,1.8
		c6.101,1.716,11.662,4.503,16.687,8.358C82.917,65.885,85.729,68.632,88.185,71.696z"/>
	<g id="Colour_8_">
	</g>
</g>
<g>
	<path fill="#222222" d="M140.345,109.781h-11.179l-2.793,14.124h12.84l-1.66,8.383h-22.209l9.746-50.909h21.299l-1.662,8.309
		h-11.706l-2.493,12.086h11.405L140.345,109.781z"/>
	<path fill="#222222" d="M148.779,132.287l-1.585-50.908h10.498l-0.681,25.758c-0.148,4.607-0.452,10.499-0.754,14.426h0.151
		c1.057-3.927,2.795-9.894,4.383-14.426l9.139-25.758h10.424l-21.3,50.908H148.779z"/>
	<path fill="#222222" d="M197.544,109.781h-11.178l-2.797,14.124h12.842l-1.664,8.383H172.54l9.744-50.909h21.301l-1.662,8.309
		h-11.707l-2.494,12.086h11.406L197.544,109.781z"/>
	<path fill="#222222" d="M199.618,132.287l9.746-50.908h8.609l3.928,20.244c1.283,6.72,2.113,11.557,2.491,15.787h0.151
		c0.682-5.59,1.588-14.352,3.172-22.812l2.493-13.219h8.159l-9.744,50.909h-8.08l-4.081-18.957
		c-1.587-7.102-2.04-10.576-2.568-16.922h-0.15c-0.68,5.137-1.812,13.521-3.477,22.358l-2.567,13.521h-8.082V132.287z"/>
	<path fill="#222222" d="M247.263,90.291h-8.838l1.738-8.913h27.117l-1.737,8.913h-8.839l-8.006,41.996h-9.444L247.263,90.291z"/>
	<path fill="#222222" d="M272.942,122.62c1.662,0.983,4.305,1.737,7.025,1.737c4.305,0.15,7.325-2.492,7.325-6.497
		c0-3.398-1.888-5.362-5.061-8.534c-4.004-3.777-6.043-7.854-6.043-12.312c0-9.441,6.648-16.09,16.617-16.09
		c3.928,0,6.423,0.832,7.632,1.586l-2.569,8.158c-1.511-0.831-3.173-1.36-5.515-1.36c-4.003,0-6.724,2.568-6.798,6.498
		c0,2.416,0.983,4.305,5.062,7.932c4.154,3.7,6.117,8.157,6.117,12.236c0,10.575-7.024,16.769-16.691,16.769
		c-5.061,0-8.31-1.133-9.517-1.889L272.942,122.62z"/>
	<path fill="#222222" d="M309.575,90.291h-8.838l1.738-8.913h27.114l-1.735,8.913h-8.84l-8.005,41.996h-9.442L309.575,90.291z"/>
	<path fill="#222222" d="M357.544,96.938c0,10.803-3.548,24.398-10.271,31.12c-3.172,3.173-6.798,4.835-11.258,4.835
		c-11.026,0-12.613-11.027-12.613-16.616c0-10.349,3.552-23.946,10.576-30.819c3.022-2.945,6.724-4.682,11.18-4.682
		C356.185,80.775,357.544,90.897,357.544,96.938z M340.475,90.669c-4.685,4.759-7.329,18.961-7.329,26.514
		c0,2.87,0.378,7.401,4.307,7.401c1.06,0,2.194-0.529,3.096-1.511c5.062-4.985,7.253-21.376,7.253-26.892
		c0-3.246-0.454-7.1-3.93-7.1C342.665,89.083,341.532,89.613,340.475,90.669z"/>
	<path fill="#222222" d="M365.759,82.059c3.173-0.529,6.724-0.907,10.123-0.907c4.379,0,8.609,0.832,11.254,3.476
		c2.115,2.113,3.323,5.061,3.323,8.385c0,7.477-4.529,13.445-10.347,15.408v0.152c2.796,1.283,4.003,4.23,4.152,9.896
		c0.153,5.665,0.303,11.934,0.832,13.821h-9.516c-0.228-1.436-0.38-6.57-0.38-12.16c0-6.194-1.284-8.234-4.456-8.234h-1.586
		l-3.777,20.393h-9.215L365.759,82.059z M370.67,104.568h2.192c4.755,0,7.928-5.062,7.928-10.425c0-2.717-1.131-5.589-4.683-5.589
		c-0.98,0-1.887,0.076-2.491,0.227L370.67,104.568z"/>
	<path fill="#222222" d="M413.375,109.781h-11.179l-2.793,14.124h12.838l-1.662,8.383h-22.205l9.745-50.909h21.298l-1.662,8.309
		H406.05l-2.494,12.086h11.406L413.375,109.781z"/>
</g>
<g>
	<path fill="#222222" d="M426.204,131.184c-0.76,0.736-1.674,1.104-2.738,1.104c-1.099,0-2.026-0.376-2.779-1.13
		s-1.131-1.68-1.131-2.78c0-1.143,0.407-2.092,1.221-2.85c0.764-0.707,1.66-1.061,2.689-1.061c1.08,0,2.002,0.382,2.766,1.146
		c0.764,0.765,1.146,1.687,1.146,2.766C427.377,129.488,426.986,130.424,426.204,131.184z M421.169,126.111
		c-0.623,0.638-0.934,1.394-0.934,2.267c0,0.905,0.316,1.675,0.949,2.308c0.63,0.635,1.389,0.95,2.281,0.95
		c0.888,0,1.646-0.318,2.276-0.955c0.63-0.641,0.944-1.408,0.944-2.303c0-0.87-0.313-1.625-0.939-2.267
		c-0.633-0.65-1.395-0.977-2.282-0.977C422.567,125.134,421.802,125.46,421.169,126.111z M421.752,130.553v-4.336
		c0.269,0,0.671,0,1.207,0.004c0.536,0.001,0.833,0.004,0.894,0.008c0.344,0.023,0.628,0.099,0.855,0.223
		c0.385,0.213,0.576,0.557,0.576,1.035c0,0.364-0.1,0.628-0.304,0.789c-0.202,0.162-0.454,0.26-0.751,0.29
		c0.273,0.058,0.479,0.141,0.615,0.251c0.255,0.205,0.383,0.53,0.383,0.972v0.388c0,0.043,0.004,0.085,0.01,0.128
		c0.005,0.043,0.016,0.085,0.031,0.128l0.039,0.121h-1.084c-0.035-0.137-0.059-0.337-0.072-0.599
		c-0.012-0.262-0.034-0.439-0.07-0.531c-0.057-0.152-0.163-0.258-0.319-0.318c-0.085-0.036-0.214-0.06-0.387-0.069l-0.251-0.016
		h-0.238v1.533H421.752L421.752,130.553L421.752,130.553z M423.821,127.073c-0.156-0.061-0.374-0.091-0.658-0.091h-0.275v1.258
		h0.441c0.266,0,0.472-0.053,0.621-0.158c0.148-0.106,0.223-0.278,0.223-0.516C424.173,127.329,424.056,127.164,423.821,127.073z"/>
</g>
</svg>
