<?xml version="1.0" encoding="utf-8"?>
<!-- Generator: Adobe Illustrator 16.2.1, SVG Export Plug-In . SVG Version: 6.00 Build 0)  -->
<!DOCTYPE svg PUBLIC "-//W3C//DTD SVG 1.1//EN" "http://www.w3.org/Graphics/SVG/1.1/DTD/svg11.dtd">
<svg version="1.1" id="Layer_1" xmlns="http://www.w3.org/2000/svg" xmlns:xlink="http://www.w3.org/1999/xlink" x="0px" y="0px"
	 width="2932.354px" height="955.03px" viewBox="-1372.325 -533.414 2932.354 955.03"
	 enable-background="new -1372.325 -533.414 2932.354 955.03" xml:space="preserve">
<g id="Body">
	
		<linearGradient id="SVGID_1_" gradientUnits="userSpaceOnUse" x1="-75.6636" y1="-1594.2983" x2="-75.664" y2="-809.4859" gradientTransform="matrix(0.866 -0.5 -0.5 -0.866 292.4671 -888.9993)">
		<stop  offset="0" style="stop-color:#6BA300"/>
		<stop  offset="1" style="stop-color:#92C83E"/>
	</linearGradient>
	<path fill="url(#SVGID_1_)" d="M461.007-52.857c-31.309,18.081-42.049,58.151-23.971,89.456L764.491,603.77
		c18.095,31.313,58.153,42.049,89.462,23.954l340.292-196.473c31.317-18.087,42.054-58.132,23.954-89.444L890.744-225.366
		c-18.074-31.305-58.127-42.045-89.453-23.964L461.007-52.857z"/>
	<path fill="#6BA300" d="M870.325,656.099c0.218,0.375,0.439,0.751,0.636,1.147c9.354,14.77,28.818,19.664,44.091,10.834
		c0.384-0.234,0.759-0.448,1.134-0.645l55.587-32.102c0.38-0.234,0.755-0.447,1.13-0.644c14.402-9.129,19.46-27.881,11.512-42.936
		l-0.652-1.147l-16.372-28.362l-28.342,16.373l-56.72,32.745l-28.354,16.373L870.325,656.099z"/>
	<path fill="#6BA300" d="M1097.19,525.118c0.222,0.375,0.438,0.75,0.656,1.146c9.338,14.77,28.798,19.664,44.079,10.834
		c0.375-0.226,0.754-0.447,1.129-0.644l55.587-32.102c0.375-0.226,0.755-0.448,1.134-0.644
		c14.395-9.129,19.451-27.872,11.504-42.937l-0.636-1.146l-16.372-28.362l-28.354,16.373l-56.716,32.745l-28.362,16.373
		L1097.19,525.118z"/>
	<path fill="#CDD929" d="M568.5-266.166c27.395-15.827,122.211,80.685,122.211,80.685L577.274-119.99
		C577.271-119.986,539.647-249.509,568.5-266.166z"/>
	<path fill="#CDD929" d="M487.809-143.965c13.738-7.92,61.104,40.348,61.104,40.348L492.2-70.872
		C492.2-70.867,473.401-135.642,487.809-143.965z"/>
	<path fill="#CDD929" d="M714.682-274.947c13.738-7.92,61.096,40.348,61.096,40.348l-56.712,32.746
		C719.065-201.849,700.267-266.62,714.682-274.947z"/>
	<path fill="#6BA300" d="M1020.716-0.364c0,0-97.609-168.901-97.602-169.059c-0.222-88.748,21.456-163.325,69.444-190.325
		c87.394-49.206,228.924,145.809,213.545,182.217c-10.105,23.887-74.283-42.878-86.562-22.619
		c-15.009,24.681,55.88,91.201,42.658,118.088c-12.804,26.039-82.665-39.597-94.91-16.577c-10.6,19.916,51.032,99.179,35.943,127
		C1091.17,50.666,1020.716-0.364,1020.716-0.364z"/>
	<path fill="#6BA300" d="M566.905,261.631c0,0-97.46-168.967-97.597-169.046c-76.752-44.569-152.177-63.09-199.551-35.02
		c-86.324,51.077,11.819,271.152,51.028,276.063c25.745,3.181-0.004-85.773,23.694-86.293c28.869-0.636,51.075,93.968,80.93,95.989
		c28.95,1.936,7.035-91.381,33.104-90.502c22.542,0.802,60.361,93.802,92.007,94.646
		C575.876,348.176,566.905,261.631,566.905,261.631z"/>
	<path fill="#6BA300" d="M1118.343,168.827c161.036,43.149,168.187-106.569,218.456-124.255
		c50.287-17.686,34.357,205.165-120.22,294.421C1216.545,338.993,1118.343,168.827,1118.343,168.827z"/>
	
		<linearGradient id="Tummy_1_" gradientUnits="userSpaceOnUse" x1="-75.6606" y1="-1594.3135" x2="-75.6607" y2="-1266.8506" gradientTransform="matrix(0.866 -0.5 -0.5 -0.866 292.4671 -888.9993)">
		<stop  offset="0" style="stop-color:#90C73E;stop-opacity:0"/>
		<stop  offset="1" style="stop-color:#90C73E"/>
	</linearGradient>
	<path id="Tummy" fill="url(#Tummy_1_)" d="M819.92,568.795l17.81,30.831c8.975,15.554,28.925,20.764,44.577,11.737l283.59-163.727
		c15.647-9.026,21.109-28.926,12.117-44.484l-17.814-30.831c-62.668-108.55-205.865-180.654-299.847-126.39
		C766.41,300.167,757.242,460.245,819.92,568.795z"/>
	<path id="Tummy_Stripe_1_" opacity="0.25" fill="#F3F3F3" enable-background="new    " d="M819.92,568.795l1.287,2.238
		L1161.5,374.561l-1.301-2.239c-10.459-18.142-23.19-35.257-37.563-50.951L794.584,510.766
		C800.972,531.09,809.435,550.653,819.92,568.795z"/>
	<path id="Tummy_Stripe" opacity="0.35" fill="#F3F3F3" enable-background="new    " d="M1070.64,275.779
		c-21.83-15.281-45.204-27.493-68.932-35.824l-217.19,125.388c-4.635,24.713-5.734,51.071-3.432,77.608L1070.64,275.779z"/>
</g>
<g id="Face">
	<path id="Tooth_3_" fill="#F3F3F3" d="M712.239,287.282c-14.433,4.609-47.69-53.07-47.69-53.07l59.71-19.093
		C724.259,215.114,727.375,282.43,712.239,287.282z"/>
	<path id="Tooth_2_" fill="#F3F3F3" d="M969.432,138.801c11.184-10.198-22.129-67.846-22.129-67.846l-46.39,42.16
		C900.909,113.124,957.65,149.474,969.432,138.801z"/>
	
		<path id="Mouth_1_" fill="none" stroke="#222420" stroke-width="9" stroke-linecap="round" stroke-linejoin="round" stroke-miterlimit="10" d="
		M624.734,230.719c102.253,7.718,299.493-108.222,340.28-196.471"/>
	<path id="Nostril_3_" fill="#222420" d="M795.522,94.314c-7.223-12.519-8.028-25.617-1.753-29.241
		c6.281-3.614,17.218,3.624,24.449,16.143c7.218,12.503,8.05,25.602,1.748,29.226C813.69,114.066,802.75,106.817,795.522,94.314z"/>
	<path id="Nostril_2_" fill="#222420" d="M744.477,123.785c-7.223-12.518-8.032-25.616-1.752-29.24
		c6.28-3.609,17.213,3.624,24.461,16.142c7.223,12.503,8.033,25.599,1.735,29.224C762.645,143.535,751.708,136.286,744.477,123.785z
		"/>
	<path id="Eye_3_" fill="#F3F3F3" d="M762.223,10.434c-24.666-42.727-39.542-100.948-8.216-119.029
		c31.309-18.08,96.987,10.811,121.631,53.538c24.653,42.682,19.234,91.988-12.07,110.063
		C832.275,73.095,786.867,53.124,762.223,10.434z"/>
	<path id="Eye_2_" fill="#F3F3F3" d="M705.507,43.183c-24.662-42.731-67.657-84.697-98.962-66.64
		c-31.312,18.08-39.141,89.399-14.467,132.131c24.653,42.672,70.07,62.668,101.379,44.573
		C724.749,135.169,730.155,85.87,705.507,43.183z"/>
	<path id="Pupil_3_" fill="#222420" d="M775.201,0.168c-13.554-23.48-5.5-53.546,17.984-67.098
		c23.477-13.552,53.536-5.5,67.095,17.98c13.55,23.48,5.5,53.54-17.977,67.099C818.819,31.703,788.76,23.649,775.201,0.168z"/>
	<path id="Pupil_2_" fill="#222420" d="M605.053,98.405c-13.555-23.476-5.518-53.546,17.98-67.098
		c23.48-13.552,53.539-5.5,67.081,17.98c13.555,23.48,5.518,53.54-17.963,67.103C648.675,129.933,618.607,121.89,605.053,98.405z"/>
	<path id="Reflection_3_" fill="#F3F3F3" d="M652.99,53.687c-8.626-2.275-14.301-9.178-12.643-15.373
		c1.646-6.138,10.029-9.27,18.646-6.995c8.63,2.336,14.305,9.235,12.659,15.373C669.981,52.902,661.603,56.028,652.99,53.687z"/>
	<path id="Reflection_2_" fill="#F3F3F3" d="M823.143-44.549c-8.643-2.275-14.321-9.178-12.658-15.373
		c1.646-6.138,10.027-9.27,18.645-6.995c8.621,2.341,14.301,9.235,12.655,15.373C840.134-45.334,831.751-42.208,823.143-44.549z"/>
</g>
<g id="Shadows_1_">
	<path opacity="0.1" fill="#222420" enable-background="new    " d="M870.325,656.099c0.218,0.375,0.439,0.751,0.636,1.147
		c9.354,14.77,28.818,19.664,44.091,10.834c0.384-0.234,0.759-0.448,1.134-0.645l55.587-32.102c0.38-0.234,0.755-0.447,1.13-0.644
		c14.402-9.129,19.46-27.881,11.512-42.936l-0.652-1.147l-16.372-28.362l-28.342,16.373l-56.72,32.745l-28.354,16.373
		L870.325,656.099z"/>
	<path opacity="0.1" fill="#222420" enable-background="new    " d="M1097.19,525.118c0.222,0.375,0.438,0.75,0.656,1.146
		c9.338,14.77,28.798,19.664,44.079,10.834c0.375-0.226,0.754-0.447,1.129-0.644l55.587-32.102c0.375-0.226,0.755-0.448,1.134-0.644
		c14.395-9.129,19.451-27.872,11.504-42.937l-0.636-1.146l-16.372-28.362l-28.354,16.373l-56.716,32.745l-28.362,16.373
		L1097.19,525.118z"/>
	
		<linearGradient id="SVGID_2_" gradientUnits="userSpaceOnUse" x1="-80.8916" y1="-742.9136" x2="-6.8828" y2="-742.9136" gradientTransform="matrix(0.866 -0.5 -0.5 -0.866 292.4671 -888.9993)">
		<stop  offset="0" style="stop-color:#222420;stop-opacity:0"/>
		<stop  offset="1" style="stop-color:#222420"/>
	</linearGradient>
	<path opacity="0.15" fill="url(#SVGID_2_)" enable-background="new    " d="M568.5-266.166c-2.456,1.414-4.473,3.692-5.999,6.641
		c32.477,2.921,99.848,90.421,99.848,90.421l28.362-16.373C690.711-185.477,595.911-281.993,568.5-266.166z"/>
	
		<linearGradient id="SVGID_3_" gradientUnits="userSpaceOnUse" x1="53.4561" y1="-775.6543" x2="91.3525" y2="-775.6543" gradientTransform="matrix(0.866 -0.5 -0.5 -0.866 292.4671 -888.9993)">
		<stop  offset="0" style="stop-color:#222420;stop-opacity:0"/>
		<stop  offset="1" style="stop-color:#222420"/>
	</linearGradient>
	<path opacity="0.15" fill="url(#SVGID_3_)" enable-background="new    " d="M714.682-274.947c-1.521,0.874-2.635,2.333-3.487,4.274
		c16.373,3.2,47.575,45.893,47.575,45.893l17.008-9.823C775.777-234.595,728.402-282.867,714.682-274.947z"/>
	
		<linearGradient id="SVGID_4_" gradientUnits="userSpaceOnUse" x1="-208.5107" y1="-775.6523" x2="-170.6177" y2="-775.6523" gradientTransform="matrix(0.866 -0.5 -0.5 -0.866 292.4671 -888.9993)">
		<stop  offset="0" style="stop-color:#222420;stop-opacity:0"/>
		<stop  offset="1" style="stop-color:#222420"/>
	</linearGradient>
	<path opacity="0.15" fill="url(#SVGID_4_)" enable-background="new    " d="M487.809-143.965c-1.514,0.874-2.635,2.333-3.479,4.274
		c16.368,3.2,47.574,45.897,47.574,45.897l17.008-9.824C548.912-103.613,501.538-151.885,487.809-143.965z"/>
	
		<linearGradient id="SVGID_5_" gradientUnits="userSpaceOnUse" x1="317.2827" y1="-1199.3379" x2="317.2827" y2="-929.5083" gradientTransform="matrix(0.866 -0.5 -0.5 -0.866 292.4671 -888.9993)">
		<stop  offset="0" style="stop-color:#222420"/>
		<stop  offset="1" style="stop-color:#222420;stop-opacity:0"/>
	</linearGradient>
	<path opacity="0.15" fill="url(#SVGID_5_)" enable-background="new    " d="M1020.716-0.364c0,0,70.454,51.03,82.512,28.733
		c15.089-27.825-46.543-107.077-35.943-126.999c12.267-23.014,82.128,42.62,94.911,16.577
		c13.204-26.887-57.663-93.408-42.659-118.088c12.28-20.268,76.458,46.498,86.562,22.619c7.803-18.52-24.985-78.095-70.586-125.663
		c33.563,41.569,29.377,73.524,22.892,88.914c-10.096,23.887-48.637-31.213-60.911-10.954
		c-15.013,24.681,30.238,79.536,17.008,106.423c-12.8,26.043-57.019-27.925-69.286-4.912
		c-10.582,19.918,25.416,87.513,10.322,115.338c-8.894,16.377-23.693,4.812-44.496-8.64L1020.716-0.364z"/>
	
		<linearGradient id="SVGID_6_" gradientUnits="userSpaceOnUse" x1="-468.5933" y1="-1202.6255" x2="-468.6194" y2="-926.1801" gradientTransform="matrix(0.866 -0.5 -0.5 -0.866 292.4671 -888.9993)">
		<stop  offset="0" style="stop-color:#222420"/>
		<stop  offset="1" style="stop-color:#222420;stop-opacity:0"/>
	</linearGradient>
	<path opacity="0.15" fill="url(#SVGID_6_)" enable-background="new    " d="M566.939,261.615c0,0,8.992,86.511-16.415,85.854
		c-31.607-0.849-69.423-93.871-92.008-94.646c-26.03-0.904-4.093,92.42-33.057,90.477c-29.901-1.996-52.106-96.608-80.977-95.964
		c-23.659,0.503,2.094,89.432-23.655,86.259c-19.967-2.464-55.186-60.651-73.575-123.942c19.243,49.844,49.021,62.179,65.581,64.276
		c25.744,3.181-2.721-57.727,20.956-58.217c28.849-0.64,53.774,65.942,83.688,67.938c28.951,1.937,4.298-63.342,30.328-62.438
		c22.602,0.775,63.12,65.76,94.719,66.607c18.671,0.457,16.044-18.125,14.782-42.854L566.939,261.615z"/>
	
		<linearGradient id="SVGID_7_" gradientUnits="userSpaceOnUse" x1="317.9805" y1="-1527.1646" x2="317.9805" y2="-1331.1294" gradientTransform="matrix(0.866 -0.5 -0.5 -0.866 292.4671 -888.9993)">
		<stop  offset="0" style="stop-color:#222420"/>
		<stop  offset="1" style="stop-color:#222420;stop-opacity:0"/>
	</linearGradient>
	<path opacity="0.15" fill="url(#SVGID_7_)" enable-background="new    " d="M1183.578,281.799l33.01,57.185
		c154.572-89.231,170.506-312.099,120.216-294.417c-1.343,0.467-2.695,1.104-4.025,1.754
		C1367.686,106.792,1271.931,242.726,1183.578,281.799z"/>
</g>
</svg>
